HIERARCHY
ROOT Trot
{
	OFFSET 0.000000 0.000000 0.000000
	CHANNELS 6 Xposition Yposition Zposition Xrotation Yrotation Zrotation
	JOINT BR_Root
	{
		OFFSET 3.254603 135.715515 -64.430511
		CHANNELS 3 Xrotation Yrotation Zrotation
		JOINT Hip
		{
			OFFSET -1.425135 -1.857422 -0.014275
			CHANNELS 3 Xrotation Yrotation Zrotation
			JOINT B_L_Leg_1
			{
				OFFSET 16.789062 -17.961159 -20.666313
				CHANNELS 3 Xrotation Yrotation Zrotation
				JOINT B_L_Leg_2
				{
					OFFSET -1.722815 -21.725815 31.010002
					CHANNELS 3 Xrotation Yrotation Zrotation
					JOINT B_L_Leg_3
					{
						OFFSET 3.787172 -44.954849 -20.699600
						CHANNELS 3 Xrotation Yrotation Zrotation
						JOINT B_L_Leg_4
						{
							OFFSET -10.138379 -16.239033 32.456482
							CHANNELS 3 Xrotation Yrotation Zrotation
							JOINT B_L_Leg_5
							{
								OFFSET -0.002844 -12.329767 7.301941
								CHANNELS 3 Xrotation Yrotation Zrotation
								JOINT B_L_Leg______END
								{
									OFFSET 0.000343 -7.835012 1.179966
									CHANNELS 3 Xrotation Yrotation Zrotation
									End Site
									{
										OFFSET -0.002120 7.738636 1.700954
									}
								}
							}
						}
					}
				}
			}
			JOINT Tail
			{
				OFFSET 0.562943 -2.034286 -49.509575
				CHANNELS 3 Xrotation Yrotation Zrotation
				JOINT Tail_1
				{
					OFFSET -0.435769 -1.442337 -3.953728
					CHANNELS 3 Xrotation Yrotation Zrotation
					JOINT Tail_2
					{
						OFFSET -0.437800 -1.115036 -4.189613
						CHANNELS 3 Xrotation Yrotation Zrotation
						JOINT Tail_3
						{
							OFFSET -0.833234 -1.520195 -4.727135
							CHANNELS 3 Xrotation Yrotation Zrotation
							JOINT Tail_4
							{
								OFFSET -2.115225 -3.148239 -7.734886
								CHANNELS 3 Xrotation Yrotation Zrotation
								JOINT Tail_5
								{
									OFFSET -3.308044 -4.717758 -8.885956
									CHANNELS 3 Xrotation Yrotation Zrotation
									JOINT Tail_6
									{
										OFFSET -3.996413 -7.309761 -10.662460
										CHANNELS 3 Xrotation Yrotation Zrotation
										JOINT Tail_7
										{
											OFFSET -4.032781 -11.379875 -12.539383
											CHANNELS 3 Xrotation Yrotation Zrotation
											JOINT Tail_8
											{
												OFFSET -3.243986 -14.783592 -15.597519
												CHANNELS 3 Xrotation Yrotation Zrotation
												JOINT Tail_9
												{
													OFFSET -0.470102 -11.725571 -15.679337
													CHANNELS 3 Xrotation Yrotation Zrotation
													JOINT Tail___CAP
													{
														OFFSET 2.462129 -9.909691 -19.671478
														CHANNELS 3 Xrotation Yrotation Zrotation
														End Site
														{
															OFFSET -2.477677 11.965195 18.491257
														}
													}
												}
											}
										}
									}
								}
							}
						}
					}
				}
			}
			JOINT B_R_Leg_1
			{
				OFFSET -16.790987 -17.961319 -20.664642
				CHANNELS 3 Xrotation Yrotation Zrotation
				JOINT B_R_Leg_2
				{
					OFFSET -0.399202 -37.743881 -3.439964
					CHANNELS 3 Xrotation Yrotation Zrotation
					JOINT B_R_Leg_3
					{
						OFFSET -1.260660 -4.846909 -49.382950
						CHANNELS 3 Xrotation Yrotation Zrotation
						JOINT B_R_Leg_4
						{
							OFFSET 5.143605 -36.191017 -9.146988
							CHANNELS 3 Xrotation Yrotation Zrotation
							JOINT B_R_Leg_5
							{
								OFFSET 0.000122 -13.731363 -4.097672
								CHANNELS 3 Xrotation Yrotation Zrotation
								JOINT B_R_Leg______END
								{
									OFFSET -0.000067 -5.146017 -6.024796
									CHANNELS 3 Xrotation Yrotation Zrotation
									End Site
									{
										OFFSET -0.000142 -2.650213 -7.466995
									}
								}
							}
						}
					}
				}
			}
		}
		JOINT Spine_1
		{
			OFFSET -1.425135 -1.857422 -0.014275
			CHANNELS 3 Xrotation Yrotation Zrotation
			JOINT Spine_2
			{
				OFFSET 1.606895 -5.541656 20.321503
				CHANNELS 3 Xrotation Yrotation Zrotation
				JOINT Spine_3
				{
					OFFSET 0.139740 -2.305725 21.475285
					CHANNELS 3 Xrotation Yrotation Zrotation
					JOINT Spine_4
					{
						OFFSET -1.029412 1.027710 22.026760
						CHANNELS 3 Xrotation Yrotation Zrotation
						JOINT Spine_5
						{
							OFFSET -0.230233 0.851891 20.375977
							CHANNELS 3 Xrotation Yrotation Zrotation
							JOINT F_L_Leg_1
							{
								OFFSET 7.529340 -14.077263 7.214756
								CHANNELS 3 Xrotation Yrotation Zrotation
								JOINT F_L_Leg_2
								{
									OFFSET 6.788572 -6.827026 20.164944
									CHANNELS 3 Xrotation Yrotation Zrotation
									JOINT F_L_Leg_3
									{
										OFFSET 1.115059 -32.145233 -9.588570
										CHANNELS 3 Xrotation Yrotation Zrotation
										JOINT F_L_Leg_4
										{
											OFFSET -0.446026 -16.121868 38.055214
											CHANNELS 3 Xrotation Yrotation Zrotation
											JOINT F_L_Leg_5
											{
												OFFSET -0.440815 -29.732534 9.838615
												CHANNELS 3 Xrotation Yrotation Zrotation
												JOINT F_L_Leg_6
												{
													OFFSET -0.000343 -7.746641 11.079582
													CHANNELS 3 Xrotation Yrotation Zrotation
													JOINT F_L_Leg______END
													{
														OFFSET -0.000238 -7.819831 3.753235
														CHANNELS 3 Xrotation Yrotation Zrotation
														End Site
														{
															OFFSET 0.000208 8.673900 0.000786
														}
													}
												}
											}
										}
									}
								}
							}
							JOINT Neck_1
							{
								OFFSET -0.174966 -12.019432 20.589619
								CHANNELS 3 Xrotation Yrotation Zrotation
								JOINT Neck_2
								{
									OFFSET -0.189782 15.531860 5.924107
									CHANNELS 3 Xrotation Yrotation Zrotation
									JOINT Neck_3
									{
										OFFSET -0.161191 12.111649 4.711941
										CHANNELS 3 Xrotation Yrotation Zrotation
										JOINT Neck_4
										{
											OFFSET -0.166135 13.662430 5.821850
											CHANNELS 3 Xrotation Yrotation Zrotation
											JOINT Neck_5
											{
												OFFSET -0.041304 10.437881 6.821949
												CHANNELS 3 Xrotation Yrotation Zrotation
												JOINT Neck_6
												{
													OFFSET -0.071238 8.444626 8.812466
													CHANNELS 3 Xrotation Yrotation Zrotation
													JOINT Head
													{
														OFFSET -0.355749 4.747559 13.124374
														CHANNELS 3 Xrotation Yrotation Zrotation
														JOINT Ear_L_1
														{
															OFFSET 8.605932 6.136246 -0.500618
															CHANNELS 3 Xrotation Yrotation Zrotation
															JOINT Ear_L_2
															{
																OFFSET 3.040809 5.225372 1.262527
																CHANNELS 3 Xrotation Yrotation Zrotation
																JOINT Ear_L_______END
																{
																	OFFSET 4.692491 5.919937 3.379524
																	CHANNELS 3 Xrotation Yrotation Zrotation
																	End Site
																	{
																		OFFSET 4.938814 6.551498 -1.082787
																	}
																}
															}
														}
														JOINT Upper_Lip
														{
															OFFSET 0.085861 -27.989960 33.095734
															CHANNELS 3 Xrotation Yrotation Zrotation
															JOINT Upper_Lip________END
															{
																OFFSET -0.036102 -6.414398 6.931297
																CHANNELS 3 Xrotation Yrotation Zrotation
																End Site
																{
																	OFFSET -0.003267 9.309784 -1.586411
																}
															}
														}
														JOINT Jaw
														{
															OFFSET -0.060823 -12.865738 2.790787
															CHANNELS 3 Xrotation Yrotation Zrotation
															JOINT Lower_Lip
															{
																OFFSET 0.191039 -22.540009 25.212280
																CHANNELS 3 Xrotation Yrotation Zrotation
																JOINT Lower_Lip_________END
																{
																	OFFSET -0.031646 -4.882492 5.910133
																	CHANNELS 3 Xrotation Yrotation Zrotation
																	End Site
																	{
																		OFFSET -0.002651 7.557159 -1.287933
																	}
																}
															}
														}
														JOINT Ear_R_1
														{
															OFFSET -8.616610 6.110977 -0.613823
															CHANNELS 3 Xrotation Yrotation Zrotation
															JOINT Ear_R_2
															{
																OFFSET -3.072563 5.216400 1.221497
																CHANNELS 3 Xrotation Yrotation Zrotation
																JOINT Ear_R_______END
																{
																	OFFSET -4.754074 5.906662 3.316498
																	CHANNELS 3 Xrotation Yrotation Zrotation
																	End Site
																	{
																		OFFSET 4.943489 -6.536896 1.148872
																	}
																}
															}
														}
													}
												}
											}
										}
									}
								}
							}
							JOINT F_R_Leg_1
							{
								OFFSET -7.561445 -14.144829 7.047081
								CHANNELS 3 Xrotation Yrotation Zrotation
								JOINT F_R_Leg_2
								{
									OFFSET -7.490087 -18.410370 10.211670
									CHANNELS 3 Xrotation Yrotation Zrotation
									JOINT F_R_Leg_3
									{
										OFFSET -4.092322 -17.009804 -28.642815
										CHANNELS 3 Xrotation Yrotation Zrotation
										JOINT F_R_Leg_4
										{
											OFFSET 0.673744 -33.769989 23.821278
											CHANNELS 3 Xrotation Yrotation Zrotation
											JOINT F_R_Leg_5
											{
												OFFSET -0.709656 -16.370253 -26.693209
												CHANNELS 3 Xrotation Yrotation Zrotation
												JOINT F_R_Leg_6
												{
													OFFSET -0.002195 -3.763660 -12.984716
													CHANNELS 3 Xrotation Yrotation Zrotation
													JOINT F_R_Leg______END
													{
														OFFSET -0.001354 0.744717 -8.641863
														CHANNELS 3 Xrotation Yrotation Zrotation
														End Site
														{
															OFFSET -0.001043 4.411440 -7.468306
														}
													}
												}
											}
										}
									}
								}
							}
							JOINT Reins_Hold
							{
								OFFSET -0.821133 40.370613 -10.559194
								CHANNELS 3 Xrotation Yrotation Zrotation
								End Site
								{
									OFFSET 0.614936 24.797165 -4.177474
								}
							}
						}
						JOINT LegStrap_L_01
						{
							OFFSET 29.529762 -10.500198 -7.799863
							CHANNELS 3 Xrotation Yrotation Zrotation
							JOINT LegStrap_L_02
							{
								OFFSET 1.435596 -2.596252 -0.084677
								CHANNELS 3 Xrotation Yrotation Zrotation
								JOINT LegStrap_L_03
								{
									OFFSET 1.605007 -6.952461 -0.948510
									CHANNELS 3 Xrotation Yrotation Zrotation
									JOINT LegStrap_L_04
									{
										OFFSET 1.460255 -4.845482 0.436653
										CHANNELS 3 Xrotation Yrotation Zrotation
										JOINT LegStrap_L_05
										{
											OFFSET 2.671787 -5.420998 -0.167254
											CHANNELS 3 Xrotation Yrotation Zrotation
											JOINT LegStrap_L_06_Twist
											{
												OFFSET 2.622787 -6.875168 -1.868454
												CHANNELS 3 Xrotation Yrotation Zrotation
												End Site
												{
													OFFSET -1.404224 6.684860 3.313437
												}
											}
										}
									}
								}
							}
						}
						JOINT LegStrap_R_01
						{
							OFFSET -29.253990 -10.763046 -8.453058
							CHANNELS 3 Xrotation Yrotation Zrotation
							JOINT LegStrap_R_02
							{
								OFFSET -1.981247 -1.738564 -0.007399
								CHANNELS 3 Xrotation Yrotation Zrotation
								JOINT LegStrap_R_03
								{
									OFFSET -1.103901 -7.222908 -0.102202
									CHANNELS 3 Xrotation Yrotation Zrotation
									JOINT LegStrap_R_04
									{
										OFFSET -1.463400 -7.123474 -0.432649
										CHANNELS 3 Xrotation Yrotation Zrotation
										JOINT LegStrap_R_05
										{
											OFFSET -1.022081 -4.663269 -1.267930
											CHANNELS 3 Xrotation Yrotation Zrotation
											JOINT LegStrap_R_06_Twist
											{
												OFFSET -3.106174 -5.807907 -3.417712
												CHANNELS 3 Xrotation Yrotation Zrotation
												End Site
												{
													OFFSET 6.904819 -2.701591 0.292732
												}
											}
										}
									}
								}
							}
						}
					}
				}
			}
		}
	}
}
MOTION
Frames: 4
Frame Time: 0.033333
0.000000 0.000000 0.000000 0.000006 0.000000 -0.000000 -0.000049 -0.000046 -0.000252 0.000048 0.000062 0.000259 -0.000000 -0.000009 -0.000006 0.000004 0.000000 -0.000005 -0.000009 0.000000 -0.000012 0.000005 -0.000000 -0.000002 0.000013 -0.000003 -0.000002 0.000001 -0.000000 0.000000 0.000080 -0.000014 -0.000025 -0.000004 -0.000009 0.000006 -0.000042 0.000009 -0.000004 -0.000045 0.000002 0.000007 -0.000003 -0.000006 -0.000001 -0.000025 0.000004 0.000009 0.000041 -0.000007 -0.000013 -0.000039 0.000006 0.000006 0.000042 -0.000003 -0.000004 -0.000029 -0.000000 -0.000001 0.000003 0.000000 0.000001 -0.000019 -0.000016 -0.000009 0.000019 -0.000004 0.000011 0.000021 0.000009 -0.000012 -0.000048 0.000000 -0.000001 0.000019 -0.000001 0.000007 0.000002 -0.000000 0.000000 0.000052 0.000046 0.000246 -0.000026 0.000000 0.000001 -0.000001 -0.000002 -0.000041 0.000012 0.000002 0.000060 0.000004 -0.000009 -0.000009 -0.000008 0.000022 -0.000025 0.000025 -0.000005 0.000001 -0.000008 0.000004 -0.000000 0.000012 -0.000002 -0.000004 0.000012 -0.000010 0.000009 -0.000015 0.000004 0.000003 0.000003 -0.000000 -0.000000 0.000049 0.000012 -0.000003 -0.000050 -0.000001 -0.000002 -0.000001 -0.000002 0.000001 -0.000016 0.000002 -0.000001 0.000052 -0.000002 0.000000 0.000034 0.000001 0.000001 -0.000024 0.000008 0.000002 -0.000004 -0.000021 0.000066 0.000044 -0.000001 -0.000064 -0.000000 -0.000000 -0.000002 -0.000026 -0.000007 -0.000002 -0.000001 -0.000000 -0.000000 0.000015 -0.000009 -0.000007 -0.000026 0.000000 0.000001 -0.000001 -0.000000 0.000000 -0.000079 -0.000064 0.000032 0.000087 0.000061 -0.000026 -0.000002 -0.000003 0.000002 -0.000014 0.000028 -0.000080 0.000012 0.000008 -0.000002 -0.000004 0.000001 -0.000006 -0.000003 -0.000004 0.000003 -0.000002 0.000016 -0.000003 0.000013 -0.000012 -0.000008 0.000003 0.000000 -0.000000 0.000002 0.000000 -0.000000 0.000000 0.000000 -0.000000 -0.000000 0.000000 0.000001 0.000000 -0.000002 -0.000002 0.000003 -0.000003 0.000007 -0.000005 0.000007 0.000002 0.000006 -0.000000 0.000006 -0.000007 -0.000000 -0.000000 -0.000000 0.000002 -0.000000 -0.000000 -0.000003 -0.000000 0.000000 0.000004 0.000001 -0.000002 -0.000000 -0.000001 -0.000003 -0.000001 -0.000001 
0.000000 0.000000 0.000000 0.000006 0.000000 -0.000000 -0.000049 -0.000046 -0.000252 0.000048 0.000062 0.000259 0.012640 0.064683 -0.889779 -0.134054 -0.278867 0.594734 2.062603 0.106934 0.689334 -2.263616 0.132616 -0.394325 0.124731 0.000015 0.000076 0.000006 -0.000000 0.000000 0.244929 -0.097982 -0.266531 0.192517 -0.310644 0.092463 -0.110180 0.113739 -0.032593 -0.154656 0.154929 -0.032893 -0.094672 0.081125 -0.015461 0.206711 -0.116310 0.007788 0.099100 -0.069154 0.024814 -0.088204 0.252042 -0.224550 0.442071 0.735489 -0.633051 0.286761 0.764690 -0.407685 0.000004 0.000001 0.000000 1.215085 0.751189 -1.416938 0.195707 -1.631876 0.175293 -5.230257 -0.969034 0.716560 9.053662 1.813490 0.321946 -4.453169 -0.000077 0.000114 -0.000010 -0.000000 0.000000 -0.475718 -0.324713 -0.054735 0.170366 0.209692 0.022753 0.350694 0.149646 0.004237 -0.020875 -0.021074 0.000476 0.000003 -0.000009 -0.000009 -1.575638 -2.007458 -1.712030 1.700486 2.053477 1.698327 3.535520 0.272738 0.521387 -4.932127 0.348235 -0.174210 3.351187 -0.601871 -0.350807 -2.163444 0.000056 -0.000027 -0.000005 -0.000000 -0.000000 0.229868 0.000807 0.002559 -0.380337 -0.000389 -0.002075 -0.199596 -0.000673 -0.002213 -0.038649 -0.006869 0.012227 -0.356540 0.019512 -0.022370 0.000030 0.000001 0.000001 0.146673 -0.013384 0.005705 -0.000010 -0.000027 0.000038 0.000034 0.000003 -0.000065 -0.000005 0.000005 0.000001 -0.000021 -0.000006 -0.000001 -0.000000 0.000000 -0.000000 0.000014 -0.000009 -0.000007 -0.000031 0.000002 -0.000002 0.000008 -0.000000 0.000000 -0.000085 -0.000054 0.000038 0.000090 0.000062 -0.000028 -0.000010 -0.000004 0.000004 -0.101291 -0.066287 -0.082687 -0.322733 0.103435 0.164454 -1.548023 -0.203302 0.101557 6.116753 0.977264 0.351911 -5.640530 -0.786170 -0.602587 1.467046 -0.000066 -0.000243 0.000007 -0.000000 -0.000000 -0.027086 0.006110 -0.003650 -0.000001 0.000001 -0.000016 -0.000001 -0.000000 0.000003 -0.039712 0.000367 0.000563 -0.041967 0.001191 0.000837 -0.044898 0.013304 -0.000375 -0.023424 -0.029285 0.072930 -0.000007 0.000000 -0.000006 -0.000001 0.000010 -0.000001 -0.000002 0.000004 -0.000002 -0.040014 0.002171 -0.000082 -0.040804 -0.000751 0.001724 -0.029566 0.015547 -0.081361 
0.000000 0.000000 0.000000 0.000006 0.000000 -0.000000 -0.000049 -0.000046 -0.000252 0.000048 0.000062 0.000259 0.643424 0.717720 -2.179467 -0.279648 -0.590456 1.254885 4.355397 0.291404 1.435544 -5.960062 -0.268115 -0.550470 0.506174 0.000068 0.000312 0.000002 -0.000000 0.000000 0.380048 -0.196679 -0.516359 0.372665 -0.517093 0.150483 -0.202941 0.182619 -0.050644 -0.278826 0.253762 -0.048199 -0.173990 0.126053 -0.014868 0.372883 -0.214271 0.012297 0.163303 -0.077153 0.008747 -0.151668 0.514446 -0.464440 0.903247 1.401450 -1.222942 0.581926 1.641917 -0.882225 -0.000006 0.000000 -0.000000 1.041982 1.263444 -2.756663 0.373829 -3.053533 0.333334 -9.772311 -1.863568 1.264372 22.878562 3.536352 0.071012 -12.292076 -0.000230 0.000286 0.000002 -0.000000 0.000000 -1.130465 -0.772433 -0.138191 0.486991 0.511373 0.049572 0.897568 0.388435 0.006800 -0.163984 -0.084748 -0.000702 0.000004 -0.000009 -0.000009 -3.751906 -4.673361 -4.403857 4.108251 4.938255 4.181294 7.765619 0.764437 1.113530 -10.722394 0.715769 -0.329220 6.888153 -1.354834 -0.813212 -4.739573 0.000119 -0.000059 -0.000002 -0.000000 -0.000000 0.613866 0.005480 0.005742 -0.792439 -0.003092 -0.007334 -0.427200 -0.003987 -0.007128 -0.084277 -0.013778 0.024351 -0.727078 0.041525 -0.047306 0.000022 -0.000002 -0.000002 0.285115 -0.027412 0.004420 -0.000013 -0.000022 0.000056 0.000028 0.000000 -0.000067 -0.000018 0.000011 0.000003 -0.000011 -0.000006 -0.000001 -0.000001 0.000000 -0.000000 0.000012 -0.000009 -0.000006 -0.000027 0.000004 -0.000007 0.000012 -0.000000 0.000000 -0.000094 -0.000055 0.000015 0.000080 0.000068 -0.000031 -0.000009 -0.000006 0.000004 -0.591097 -0.176661 -0.398298 -1.030348 0.316967 0.673918 -2.515791 -0.498088 0.200747 12.051483 1.993887 0.658581 -10.897713 -1.526068 -1.436121 2.848461 -0.000122 -0.000461 0.000012 -0.000000 -0.000000 -0.103625 0.015326 -0.002600 0.000000 0.000001 -0.000017 -0.000001 0.000000 0.000000 -0.153742 -0.001347 -0.004016 -0.156126 -0.003184 -0.003458 -0.154529 -0.001788 -0.001715 -0.094391 -0.103197 0.281541 -0.000006 0.000000 -0.000010 -0.000000 0.000002 -0.000000 -0.000000 0.000000 -0.000001 -0.155586 0.001299 -0.005217 -0.154573 0.001626 -0.003778 -0.104574 0.065489 -0.312642 
0.000000 0.000000 0.000000 0.000006 0.000000 -0.000000 -0.000078 -0.000041 -0.000251 0.000047 0.000062 0.000259 1.792173 1.746933 -3.732641 -0.434373 -0.932206 1.974365 6.851991 0.486919 2.257639 -10.898883 -0.979960 -0.638679 1.148449 0.000162 0.000710 0.000016 -0.000000 0.000000 0.433573 -0.299483 -0.742351 0.546734 -0.623595 0.174126 -0.274172 0.210491 -0.052352 -0.378467 0.301876 -0.043009 -0.244461 0.139128 0.001737 0.500406 -0.291225 0.018375 0.199443 -0.036139 -0.041090 -0.197880 0.790754 -0.725924 1.381719 1.998309 -1.769278 0.883249 2.625170 -1.421111 0.000009 0.000001 0.000000 -0.191080 1.535835 -3.842797 0.493256 -4.027539 0.442308 -12.885820 -2.499952 1.602638 37.205044 4.724447 -0.707850 -20.801488 -0.000421 0.000448 -0.000005 -0.000000 0.000000 -1.936662 -1.318643 -0.246745 0.925429 0.894005 0.081021 1.608836 0.709098 0.004252 -0.411833 -0.194395 -0.003145 0.000003 -0.000009 -0.000009 -4.655151 -5.945374 -5.904867 5.617661 6.396943 5.532751 11.882258 0.929677 1.118117 -16.816025 1.048853 -0.439579 10.595790 -1.723935 -0.728712 -7.410013 0.000186 -0.000089 -0.000005 0.000000 -0.000000 1.130177 0.007336 0.011456 -1.222406 -0.006557 -0.007937 -0.679353 -0.007358 -0.012335 -0.136924 -0.023061 0.038977 -1.108146 0.058736 -0.067255 0.000025 -0.000006 -0.000006 0.411145 -0.041785 -0.000400 -0.000001 -0.000011 0.000039 0.000032 -0.000016 -0.000068 0.000004 -0.000003 -0.000003 -0.000037 -0.000006 -0.000002 0.000001 0.000000 0.000000 0.000012 -0.000009 -0.000007 -0.000019 0.000009 -0.000015 -0.000005 -0.000000 -0.000000 -0.000082 -0.000053 0.000008 0.000085 0.000081 -0.000025 0.000001 0.000002 0.000005 -1.453316 -0.312396 -0.941523 -2.035710 0.589265 1.519922 -2.998719 -0.865609 0.307293 17.744908 3.023483 0.904612 -15.703892 -2.209099 -2.477490 4.143833 -0.000179 -0.000663 -0.000000 0.000000 0.000000 -0.229775 0.033314 0.006773 0.000000 0.000001 -0.000033 -0.000001 0.000000 -0.000002 -0.336415 -0.004054 -0.005719 -0.337065 -0.008983 -0.003489 -0.339351 0.007348 -0.002501 -0.204355 -0.220692 0.603084 -0.000006 0.000001 -0.000016 0.000000 0.000002 0.000001 0.000002 0.000004 -0.000000 -0.336601 0.002543 -0.008765 -0.335426 0.000763 -0.008819 -0.223566 0.145908 -0.671820 
